<?xml version="1.0" encoding="iso-8859-1"?>
<!-- Generator: Adobe Illustrator 18.1.1, SVG Export Plug-In . SVG Version: 6.00 Build 0)  -->
<svg version="1.1" id="Ebene_1" xmlns="http://www.w3.org/2000/svg" xmlns:xlink="http://www.w3.org/1999/xlink" x="0px" y="0px"
	 viewBox="0 0 28.346 27.586" style="enable-background:new 0 0 28.346 27.586;" xml:space="preserve">
<g>
	<g>
		<path style="fill:#DAC26D;" d="M13.836,4.512C13.641,2.024,12.118,0,10.324,0S7.078,1.969,6.813,4.512
			c-0.259,2.479,1.2,4.512,3.511,4.512C12.636,9.024,14.03,6.997,13.836,4.512"/>
		<path style="fill:#B77242;" d="M10.716,4.503c0-2.256-0.175-4.085-0.392-4.085c-0.216,0-0.391,1.829-0.391,4.085
			s0.175,4.085,0.391,4.085C10.541,8.588,10.716,6.759,10.716,4.503"/>
	</g>
	<g>
		<path style="fill:#FFE37E;" d="M21.609,4.512C21.414,2.024,19.891,0,18.097,0s-3.246,1.969-3.511,4.512
			c-0.259,2.479,1.2,4.512,3.511,4.512C20.409,9.024,21.803,6.997,21.609,4.512"/>
		<path style="fill:#B77242;" d="M18.489,4.503c0-2.256-0.175-4.085-0.392-4.085c-0.216,0-0.391,1.829-0.391,4.085
			s0.175,4.085,0.391,4.085C18.314,8.588,18.489,6.759,18.489,4.503"/>
	</g>
	<g>
		<path style="fill:#FFF482;" d="M17.722,23.074c-0.195-2.488-1.718-4.512-3.512-4.512c-1.794,0-3.246,1.969-3.511,4.512
			c-0.259,2.479,1.2,4.512,3.511,4.512C16.522,27.586,17.916,25.558,17.722,23.074"/>
		<path style="fill:#B77242;" d="M14.602,23.065c0-2.256-0.175-4.084-0.392-4.084c-0.216,0-0.391,1.828-0.391,4.084
			s0.175,4.084,0.391,4.084C14.427,27.149,14.602,25.321,14.602,23.065"/>
	</g>
	<g>
		<path style="fill:#E3B36C;" d="M24.793,18.431c-0.195-2.488-1.718-4.512-3.512-4.512s-3.246,1.969-3.511,4.512
			c-0.259,2.479,1.2,4.512,3.511,4.512C23.593,22.943,24.987,20.916,24.793,18.431"/>
		<path style="fill:#B77242;" d="M21.673,18.422c0-2.256-0.175-4.085-0.392-4.085c-0.216,0-0.391,1.829-0.391,4.085
			s0.175,4.085,0.391,4.085C21.498,22.507,21.673,20.678,21.673,18.422"/>
	</g>
	<g>
		<path style="fill:#FDCB78;" d="M10.651,18.31c-0.198-2.532-1.748-4.593-3.575-4.593c-1.826,0-3.304,2.004-3.574,4.593
			c-0.264,2.523,1.221,4.593,3.574,4.593S10.849,20.839,10.651,18.31"/>
		<path style="fill:#B77242;" d="M7.475,18.301c0-2.296-0.178-4.158-0.399-4.158c-0.22,0-0.398,1.862-0.398,4.158
			c0,2.296,0.178,4.158,0.398,4.158C7.297,22.459,7.475,20.597,7.475,18.301"/>
	</g>
	<g>
		<path style="fill:#F4CC8C;" d="M28.328,9.892C28.133,7.404,26.61,5.38,24.816,5.38s-3.246,1.969-3.511,4.512
			c-0.259,2.479,1.2,4.512,3.511,4.512C27.128,14.404,28.522,12.376,28.328,9.892"/>
		<path style="fill:#B77242;" d="M25.208,9.883c0-2.256-0.175-4.084-0.392-4.084c-0.216,0-0.391,1.828-0.391,4.084
			s0.175,4.084,0.391,4.084C25.033,13.967,25.208,12.139,25.208,9.883"/>
	</g>
	<g>
		<path style="fill:#FFE4B5;" d="M7.053,9.892C6.858,7.404,5.335,5.38,3.541,5.38S0.295,7.349,0.03,9.892
			c-0.259,2.479,1.2,4.512,3.511,4.512C5.853,14.404,7.247,12.376,7.053,9.892"/>
		<path style="fill:#B77242;" d="M3.933,9.883c0-2.256-0.175-4.084-0.392-4.084c-0.216,0-0.391,1.828-0.391,4.084
			s0.175,4.084,0.391,4.084C3.758,13.967,3.933,12.139,3.933,9.883"/>
	</g>
	<g>
		<path style="fill:#D7B46A;" d="M17.722,13.168c-0.195-2.488-1.718-4.512-3.512-4.512c-1.794,0-3.246,1.969-3.511,4.512
			c-0.259,2.479,1.2,4.512,3.511,4.512C16.522,17.68,17.916,15.652,17.722,13.168"/>
		<path style="fill:#B77242;" d="M14.602,13.159c0-2.256-0.175-4.084-0.392-4.084c-0.216,0-0.391,1.828-0.391,4.084
			s0.175,4.084,0.391,4.084C14.427,17.243,14.602,15.415,14.602,13.159"/>
	</g>
</g>
</svg>
