<?xml version="1.0" encoding="iso-8859-1"?>
<!-- Generator: Adobe Illustrator 18.1.1, SVG Export Plug-In . SVG Version: 6.00 Build 0)  -->
<svg version="1.1" id="Ebene_1" xmlns="http://www.w3.org/2000/svg" xmlns:xlink="http://www.w3.org/1999/xlink" x="0px" y="0px"
	 viewBox="0 0 23.131 28.346" style="enable-background:new 0 0 23.131 28.346;" xml:space="preserve">
<g>
	<path style="fill:#E3EDC6;" d="M19.946,0.216c0.58,2.246-0.009,4.732-1.768,6.491c-1.759,1.759-4.245,2.349-6.491,1.768
		c-0.046-0.178-0.181-0.137-0.232,0.06C9.833,8.954,8.036,8.529,6.766,7.258c-1.271-1.271-1.697-3.067-1.278-4.69
		c1.623-0.419,3.419,0.006,4.69,1.277c0.68,0.681,1.118,1.511,1.314,2.386c0.124-1.549,0.778-3.063,1.963-4.247
		C15.214,0.225,17.7-0.364,19.946,0.216"/>
	<path style="fill:#76B82A;" d="M0,15.012c0-6.387,7.055-9.911,11.565-7.13c4.51-2.781,11.566,0.743,11.566,7.13
		s-7.055,16.879-11.566,12.143C7.055,31.891,0,21.399,0,15.012"/>
</g>
</svg>
