<?xml version="1.0" encoding="iso-8859-1"?>
<!-- Generator: Adobe Illustrator 18.1.1, SVG Export Plug-In . SVG Version: 6.00 Build 0)  -->
<svg version="1.1" id="Ebene_1" xmlns="http://www.w3.org/2000/svg" xmlns:xlink="http://www.w3.org/1999/xlink" x="0px" y="0px"
	 viewBox="0 0 27.191 26.326" style="enable-background:new 0 0 27.191 26.326;" xml:space="preserve">
<g>
	<path style="fill:#743701;" d="M27.14,21.257c0.54-3.61-3.352-7.846-4.958-8.086c-1.598-0.239-6.566,2.673-7.105,6.283
		c-0.54,3.61,1.713,6.275,5.152,6.789C23.667,26.757,26.601,24.867,27.14,21.257"/>
	<path style="fill:#743701;" d="M7.902,23.755c3.471-1.128,5.526-6.5,5.025-8.045c-0.5-1.537-5.323-4.683-8.794-3.555
		s-4.851,4.333-3.777,7.639C1.43,23.101,4.431,24.883,7.902,23.755"/>
	<path style="fill:#743701;" d="M20.28,2.162c-2.419-2.734-8.165-2.476-9.381-1.4c-1.211,1.071-2.173,6.748,0.246,9.482
		c2.418,2.734,5.908,2.721,8.512,0.417C22.261,8.358,22.699,4.896,20.28,2.162"/>
</g>
</svg>
