<?xml version="1.0" encoding="utf-8"?>
<!-- Generator: Adobe Illustrator 18.1.1, SVG Export Plug-In . SVG Version: 6.00 Build 0)  -->
<!DOCTYPE svg PUBLIC "-//W3C//DTD SVG 1.1//EN" "http://www.w3.org/Graphics/SVG/1.1/DTD/svg11.dtd">
<svg version="1.1" id="Ebene_1" xmlns="http://www.w3.org/2000/svg" xmlns:xlink="http://www.w3.org/1999/xlink" x="0px" y="0px"
	 viewBox="0 0 51 51" enable-background="new 0 0 51 51" xml:space="preserve">
<g>
	<path fill="#FFFFFF" d="M25.6,48C38,48,48.1,37.9,48.1,25.5S38,3,25.6,3S3.1,13.1,3.1,25.5S13.2,48,25.6,48"/>
	<path fill="#3C3C3B" d="M44.3,25.6c0-10.4-8.4-18.7-18.7-18.7c-10.3,0-18.7,8.4-18.7,18.7s8.4,18.7,18.7,18.7
		C35.9,44.3,44.3,36,44.3,25.6"/>
	<path fill="#FFFFFF" d="M25.7,21.6c0.1,2.4,0.1,8,0.1,11.2c0,3.2-0.1,4.8-0.1,7.2c-0.1,2.4-0.3,2.4-0.4,0c-0.1-2.4-0.1-4-0.1-7.2
		c0-3.2,0.1-8.8,0.1-11.2C25.4,19.2,25.6,19.7,25.7,21.6"/>
	<path fill="#FFFFFF" d="M27.9,14.4c0-1.6-1.9-4.5-2.4-4.5c-0.5,0-2.4,2.6-2.4,4.5c0,2.5,1.8,4.5,2.4,4.5
		C26.1,18.9,27.9,16.9,27.9,14.4"/>
	<path fill="#FFFFFF" d="M23.3,18.1c-1-1.3-4.4-2.3-4.7-2c-0.4,0.3-0.2,3.6,0.9,5.1c1.6,2,4.2,2.4,4.7,2
		C24.7,22.8,24.9,20,23.3,18.1"/>
	<path fill="#FFFFFF" d="M23.2,25.1c-1.1-1.4-4.9-2.6-5.3-2.3c-0.5,0.4-0.3,4,1.1,5.7c1.7,2.2,4.7,2.7,5.3,2.3
		C24.7,30.4,24.9,27.3,23.2,25.1"/>
	<path fill="#FFFFFF" d="M27.7,18.1c1-1.3,4.4-2.3,4.7-2c0.4,0.3,0.2,3.6-0.9,5.1c-1.6,2-4.2,2.4-4.7,2C26.3,22.8,26.2,20,27.7,18.1
		"/>
	<path fill="#FFFFFF" d="M27.9,25.1c1.1-1.4,4.9-2.6,5.3-2.3c0.5,0.4,0.3,4-1.1,5.7c-1.7,2.2-4.7,2.7-5.3,2.3
		C26.3,30.4,26.1,27.3,27.9,25.1"/>
	<path fill="#FFFFFF" d="M23.2,33c-1.1-1.4-4.9-2.6-5.3-2.3c-0.5,0.4-0.3,4,1.1,5.7c1.7,2.2,4.7,2.7,5.3,2.3
		C24.7,38.3,24.9,35.2,23.2,33"/>
	<path fill="#FFFFFF" d="M27.9,33c1.1-1.4,4.9-2.6,5.3-2.3c0.5,0.4,0.3,4-1.1,5.7c-1.7,2.2-4.7,2.7-5.3,2.3
		C26.3,38.3,26.1,35.2,27.9,33"/>
	<path fill="#F20D54" d="M25.5,0C11.4,0,0,11.4,0,25.5C0,39.6,11.4,51,25.5,51C39.6,51,51,39.6,51,25.5C51,11.4,39.6,0,25.5,0z
		 M3.6,25.5c0-12.1,9.8-22,22-22c5.4,0,10.4,2,14.2,5.2L8.8,39.7C5.5,35.9,3.6,30.9,3.6,25.5z M25.5,47.5c-5.4,0-10.4-2-14.2-5.2
		l30.9-30.9c3.3,3.8,5.2,8.8,5.2,14.2C47.5,37.6,37.6,47.5,25.5,47.5z"/>
</g>
<g>
</g>
<g>
</g>
<g>
</g>
<g>
</g>
<g>
</g>
<g>
</g>
</svg>
