<?xml version="1.0" encoding="utf-8"?>
<!-- Generator: Adobe Illustrator 18.1.1, SVG Export Plug-In . SVG Version: 6.00 Build 0)  -->
<!DOCTYPE svg PUBLIC "-//W3C//DTD SVG 1.1//EN" "http://www.w3.org/Graphics/SVG/1.1/DTD/svg11.dtd">
<svg version="1.1" id="Ebene_1" xmlns="http://www.w3.org/2000/svg" xmlns:xlink="http://www.w3.org/1999/xlink" x="0px" y="0px"
	 viewBox="0 0 47.1 47.1" enable-background="new 0 0 47.1 47.1" xml:space="preserve">
<g>
	<path fill="#FFFFFF" d="M23.2,42.9c10.6,0,19.2-8.6,19.2-19.2c0-10.6-8.6-19.2-19.2-19.2S4,13.1,4,23.7C4,34.3,12.6,42.9,23.2,42.9
		"/>
	<circle fill="none" stroke="#FFFFFF" stroke-width="3" cx="23.2" cy="23.7" r="19.2"/>
	<path fill="#3C3C3B" d="M15.9,36.5c0.6,0,1.1-2.6,1.1-5.8c0-3.2-0.5-5.8-1.1-5.8c-0.6,0-1.1,2.6-1.1,5.8
		C14.9,33.9,15.4,36.5,15.9,36.5 M23.5,19.3c0.6,0,1.1-2.6,1.1-5.8s-0.5-5.8-1.1-5.8c-0.6,0-1.1,2.6-1.1,5.8S22.9,19.3,23.5,19.3
		 M31.1,36.5c0.6,0,1.1-2.6,1.1-5.8c0-3.2-0.5-5.8-1.1-5.8c-0.6,0-1.1,2.6-1.1,5.8C30,33.9,30.5,36.5,31.1,36.5 M37.4,30.7
		c0.5,4.5-2.2,8.2-6.4,8.2c-4.2,0-6.7-3.7-6.4-8.2c0.4-4.5,3.1-8.2,6.4-8.2S37,26.1,37.4,30.7 M29.9,13.5c0.5,4.5-2.2,8.2-6.4,8.2
		c-4.2,0-6.7-3.7-6.4-8.2c0.4-4.5,3.1-8.2,6.4-8.2C26.8,5.3,29.4,8.9,29.9,13.5 M15.9,22.5c3.3,0,5.9,3.6,6.4,8.2
		c0.5,4.5-2.2,8.2-6.4,8.2c-4.2,0-6.7-3.7-6.4-8.2C9.9,26.2,12.7,22.5,15.9,22.5 M47.1,23.6C47.1,10.5,36.6,0,23.6,0S0,10.5,0,23.6
		s10.5,23.6,23.5,23.6S47.1,36.6,47.1,23.6"/>
</g>
<g>
</g>
<g>
</g>
<g>
</g>
<g>
</g>
<g>
</g>
<g>
</g>
</svg>
