<?xml version="1.0" encoding="utf-8"?>
<!-- Generator: Adobe Illustrator 18.1.1, SVG Export Plug-In . SVG Version: 6.00 Build 0)  -->
<!DOCTYPE svg PUBLIC "-//W3C//DTD SVG 1.1//EN" "http://www.w3.org/Graphics/SVG/1.1/DTD/svg11.dtd">
<svg version="1.1" id="Ebene_1" xmlns="http://www.w3.org/2000/svg" xmlns:xlink="http://www.w3.org/1999/xlink" x="0px" y="0px"
	 viewBox="0 0 57.4 57.4" enable-background="new 0 0 57.4 57.4" xml:space="preserve">
<g>
	<path fill="#FFFFFF" d="M28.8,54C42.7,54,54,42.6,54,28.7S42.7,3.4,28.8,3.4S3.5,14.7,3.5,28.7S14.8,54,28.8,54"/>
	<path fill="#3C3C3B" d="M49.9,28.8c0-11.6-9.4-21.1-21.1-21.1c-11.6,0-21.1,9.4-21.1,21.1s9.4,21.1,21.1,21.1
		C40.4,49.9,49.9,40.4,49.9,28.8"/>
	<path fill="#FFFFFF" d="M31.6,12.6c0.1,4.4,4.7,9.2,4.7,16.2l0,0.5v16.1c0,1.5-4,1.7-7.6,1.7s-7.6-0.6-7.6-1.7V28.8v0v-0.6l0-0.3
		c0.4-6.5,4.6-11.1,4.6-15.3h-0.2c-0.3,0-0.3-0.3-0.3-0.3v-0.8c0-0.3,0.3-0.3,0.3-0.3h6.3c0.3,0,0.3,0.3,0.3,0.3v0.8
		c0,0.3-0.3,0.3-0.3,0.3H31.6z"/>
	<path fill="#F20D54" d="M28.7,0C12.9,0,0,12.9,0,28.7c0,15.8,12.9,28.7,28.7,28.7s28.7-12.9,28.7-28.7C57.4,12.9,44.5,0,28.7,0z
		 M4,28.7C4,15.1,15.1,4,28.7,4c6.1,0,11.7,2.2,16,5.9L9.9,44.7C6.2,40.4,4,34.8,4,28.7z M28.7,53.4c-6.1,0-11.7-2.2-16-5.9
		l34.8-34.8c3.7,4.3,5.9,9.9,5.9,16C53.4,42.3,42.3,53.4,28.7,53.4z"/>
</g>
<g>
</g>
<g>
</g>
<g>
</g>
<g>
</g>
<g>
</g>
<g>
</g>
</svg>
