<?xml version="1.0" encoding="utf-8"?>
<!-- Generator: Adobe Illustrator 18.1.1, SVG Export Plug-In . SVG Version: 6.00 Build 0)  -->
<!DOCTYPE svg PUBLIC "-//W3C//DTD SVG 1.1//EN" "http://www.w3.org/Graphics/SVG/1.1/DTD/svg11.dtd">
<svg version="1.1" xmlns="http://www.w3.org/2000/svg" xmlns:xlink="http://www.w3.org/1999/xlink" x="0px" y="0px"
	 viewBox="0 0 57.6 57.4" enable-background="new 0 0 57.6 57.4" xml:space="preserve">
<g id="Ebene_1">
	<path fill="#FFFFFF" d="M28.8,54c14,0,25.3-11.3,25.3-25.3S42.8,3.4,28.8,3.4S3.5,14.7,3.5,28.7S14.8,54,28.8,54"/>
	<path fill="#3C3C3B" d="M49.9,28.8c0-11.6-9.4-21.1-21.1-21.1c-11.6,0-21.1,9.4-21.1,21.1s9.4,21.1,21.1,21.1
		C40.4,49.9,49.9,40.4,49.9,28.8"/>
	<path fill="#FFFFFF" d="M28.9,41.9c5.1,0,9.3-4.2,9.3-9.3c0-6.4-7.4-11-9-18.1c-0.2-0.9-0.4-0.9-0.6,0c-1.5,8-9.1,11.6-9.1,18.1
		C19.6,37.7,23.8,41.9,28.9,41.9"/>
	<path fill="#FFB500" d="M28.8,0C12.9,0,0,12.9,0,28.7c0,15.8,12.9,28.7,28.8,28.7s28.8-12.9,28.8-28.7C57.6,12.9,44.7,0,28.8,0z
		 M4,28.7C4,15.1,15.1,4,28.8,4c6.1,0,11.7,2.2,16,5.9L9.9,44.7C6.2,40.4,4,34.8,4,28.7z M28.8,53.4c-6.1,0-11.7-2.2-16-5.9
		l34.9-34.8c3.7,4.3,5.9,9.9,5.9,16C53.6,42.3,42.5,53.4,28.8,53.4z"/>
</g>
<g id="Ebene_2">
	<g>
	</g>
	<g>
	</g>
	<g>
	</g>
	<g>
	</g>
	<g>
	</g>
	<g>
	</g>
</g>
</svg>
