<?xml version="1.0" encoding="iso-8859-1"?>
<!-- Generator: Adobe Illustrator 18.1.1, SVG Export Plug-In . SVG Version: 6.00 Build 0)  -->
<svg version="1.1" id="Ebene_1" xmlns="http://www.w3.org/2000/svg" xmlns:xlink="http://www.w3.org/1999/xlink" x="0px" y="0px"
	 viewBox="0 0 31.985 35.304" style="enable-background:new 0 0 31.985 35.304;" xml:space="preserve">
<g>
	<g>
		<polygon style="fill:#BB723B;" points="13.755,23.038 12.193,22.043 11.267,20.439 9.676,20.439 8.334,19.584 6.692,20.439 
			4.84,20.439 4.044,21.818 2.633,22.552 2.552,24.402 1.626,26.006 2.422,27.384 2.352,28.974 3.914,29.969 4.84,31.572 
			6.431,31.572 7.773,32.427 9.416,31.572 11.267,31.572 12.063,30.194 13.475,29.459 13.555,27.609 14.481,26.006 13.686,24.628 		
			"/>
	</g>
	<g>
		<path style="fill:#7B410F;" d="M28.569,14.304c3.669-2.268,4.49-7.951,1.724-11.366c-2.765-3.415-7.793-3.927-11.23-1.144
			c-3.437,2.783-3.981,7.808-1.215,11.223c0.924,1.141,2.066,2.059,3.385,2.436c2.635,0.752,3.729,1.867,3.729,1.867
			S26.536,15.561,28.569,14.304"/>
		<path style="fill:#BE8867;" d="M19.063,1.794c-0.537,0.435-1.004,0.925-1.398,1.455c0.412,1.605,2.954,2.4,5.734,1.776
			c2.802-0.629,4.785-2.46,4.451-4.1C25.109-0.527,21.639-0.292,19.063,1.794"/>
	</g>
	<g>
		<path style="fill:#DAC26D;" d="M8.452,0.957c2.869-1.698,7.065,3.744,5.144,10.278c-2.477,8.427-12.734,8.622-13.521,4.504
			c-0.788-4.118,4.858-3.097,6.747-6.676C8.712,5.485,5.936,2.446,8.452,0.957"/>
		<path style="fill:#CE9D38;" d="M3.429,14.307c-0.291,0-0.545-0.211-0.591-0.507c-0.052-0.327,0.171-0.634,0.498-0.686
			c0.249-0.04,6.09-1.053,5.482-7.695c-0.03-0.33,0.213-0.622,0.543-0.652c0.337-0.021,0.622,0.213,0.652,0.543
			c0.711,7.778-6.419,8.979-6.492,8.99C3.491,14.305,3.459,14.307,3.429,14.307z"/>
	</g>
	<g>
		<path style="fill:#DAC26D;" d="M28.833,22.74c-5.897-5.797-10.22-5.006-11.419-4.034c-1.2,0.971-2.872,5.035,1.572,12.008
			c4.059,6.369,9.492,4.623,10.944,3.448C31.382,32.986,34.219,28.035,28.833,22.74"/>
		<path style="fill:#CE9D38;" d="M26.934,32.996c-0.053,0-0.107-0.008-0.161-0.022c-0.319-0.089-0.506-0.42-0.417-0.739
			c0.037-0.136,0.88-3.396-2.165-5.313c-3.761-2.371-4.299-5.197-4.319-5.316c-0.058-0.326,0.16-0.638,0.486-0.695
			c0.32-0.054,0.637,0.158,0.694,0.483c0.011,0.051,0.517,2.456,3.779,4.513c3.811,2.402,2.692,6.608,2.681,6.651
			C27.438,32.821,27.197,32.996,26.934,32.996z"/>
		<path style="fill:#CE9D38;" d="M24.161,32.656c-0.105,0-0.213-0.027-0.31-0.086c-4.442-2.688-5.334-7.512-5.37-7.716
			c-0.058-0.326,0.16-0.636,0.486-0.693c0.323-0.061,0.637,0.158,0.695,0.485c0.008,0.045,0.846,4.498,4.81,6.896
			c0.283,0.172,0.374,0.541,0.203,0.824C24.562,32.554,24.364,32.656,24.161,32.656z"/>
		<path style="fill:#CE9D38;" d="M29.547,29.233c-0.276,0-0.524-0.192-0.586-0.474c-0.994-4.601-4.707-6.708-5.305-6.904
			c-0.287-0.045-0.506-0.293-0.506-0.593c0-0.331,0.269-0.6,0.6-0.6c0.643,0,5.199,2.359,6.385,7.843
			c0.069,0.324-0.137,0.644-0.46,0.714C29.632,29.228,29.589,29.233,29.547,29.233z"/>
	</g>
</g>
</svg>
