<?xml version="1.0" encoding="utf-8"?>
<!-- Generator: Adobe Illustrator 18.1.1, SVG Export Plug-In . SVG Version: 6.00 Build 0)  -->
<!DOCTYPE svg PUBLIC "-//W3C//DTD SVG 1.1//EN" "http://www.w3.org/Graphics/SVG/1.1/DTD/svg11.dtd">
<svg version="1.1" id="Ebene_1" xmlns="http://www.w3.org/2000/svg" xmlns:xlink="http://www.w3.org/1999/xlink" x="0px" y="0px"
	 viewBox="0 0 47.6 47.6" enable-background="new 0 0 47.6 47.6" xml:space="preserve">
<g>
	<path fill="#3C3C3B" d="M47.6,23.8C47.6,37,37,47.6,23.8,47.6S0,37,0,23.8S10.7,0,23.8,0S47.6,10.7,47.6,23.8"/>
	<path fill="#FFFFFF" d="M42.6,23.8c0,8-5,14.8-12,17.5c-1.8-2.1-0.2-6.4-2.6-5.7c-4,1.1-8.6,1.2-12.6,0.1c-2.4-0.7-5.9-2.2-8.4-3
		c-1.5-0.5-2-2.2-1.4-3.9c0.3-0.9,0.5-3.4,1.6-5.4C9.6,18.8,18.7,11.7,21,8.5c0.7-0.9,6.6-2.9,8.1-2.3c0.6,0.2,3.1,3.3,3.3,4.4
		c0.2,1.3-0.6,1.7-1.3,2.5c-0.6,0.7-0.8,0.9-1.7,1.2c-0.6,0.2-4.2-0.9-4.5-1.2c-0.2-0.2-1.9,0-2.1,0.1c-0.5,0.1-3.9,4.6-3.9,5.5
		c-0.1,2-0.7,4.2-1.2,6.2c-0.1,0.2,0,1.5,0.1,1.2c0.3-0.5,0.9-0.9,1.4-1.2c1.9-1.2,4.7-1.3,6.5,0.1c0.6,0.5,1.7-0.2,2.2-0.6
		c2.4-1.3,5.4-1.6,8-0.7c0.2,0.1,0.3,0.1,0.5,0.2c0.7,0.3,2.3,1.1,5.9-1.7C42.5,22.8,42.6,23.3,42.6,23.8"/>
	<path fill="#3C3C3B" d="M17.2,29.4c0,0,0.4,0.7,1.2,1.4c0.4,0.3,0.9,0.6,1.5,0.8c0.3,0.1,0.6,0.2,0.9,0.2c0.3,0,0.7,0.1,1,0.1
		c0.3,0,0.8,0,1,0c0.3,0,0.6-0.1,0.9-0.1c0.6-0.1,1.2-0.3,1.6-0.6c0.9-0.5,1.5-1,1.5-1s0,0.2-0.2,0.5c-0.1,0.3-0.4,0.8-0.8,1.2
		c-0.4,0.5-1.1,0.9-1.8,1.1c-0.4,0.1-0.8,0.2-1.2,0.3c-0.5,0.1-0.7,0.1-1.2,0c-0.4,0-0.8-0.1-1.2-0.2c-0.4-0.1-0.8-0.3-1.1-0.4
		c-0.7-0.4-1.3-0.9-1.6-1.4c-0.4-0.5-0.5-1-0.6-1.4C17.2,29.6,17.2,29.4,17.2,29.4"/>
</g>
<g>
</g>
<g>
</g>
<g>
</g>
<g>
</g>
<g>
</g>
<g>
</g>
</svg>
