<?xml version="1.0" encoding="iso-8859-1"?>
<!-- Generator: Adobe Illustrator 18.1.1, SVG Export Plug-In . SVG Version: 6.00 Build 0)  -->
<svg version="1.1" id="Ebene_1" xmlns="http://www.w3.org/2000/svg" xmlns:xlink="http://www.w3.org/1999/xlink" x="0px" y="0px"
	 viewBox="0 0 20.354 28.346" style="enable-background:new 0 0 20.354 28.346;" xml:space="preserve">
<g>
	<path style="fill:#F9C5AF;" d="M17.248,4.252c0.488,1.857-0.008,3.913-1.486,5.368c-1.478,1.455-3.567,1.942-5.454,1.462
		c-0.057-0.217-0.101-0.437-0.131-0.658c-0.03,0.221-0.073,0.441-0.13,0.658c-1.888,0.48-3.977-0.007-5.455-1.462
		S2.619,6.109,3.107,4.252C4.53,3.89,6.067,4.078,7.371,4.816C7.376,2.764,8.501,0.972,10.177,0
		c1.676,0.972,2.802,2.764,2.806,4.816C14.287,4.078,15.825,3.89,17.248,4.252"/>
	<path style="fill:#E30613;" d="M16.757,9.824c3.213,0,4.515,2.255,2.908,5.038l-3.29,5.698l-3.29,5.699
		c-1.606,2.783-4.211,2.783-5.817,0l-3.29-5.699l-3.29-5.698c-1.607-2.783-0.305-5.038,2.908-5.038h6.581H16.757z"/>
	<path style="fill:#F9C5AF;" d="M3.085,13.498c0-0.375,0.304-0.679,0.679-0.679s0.679,0.304,0.679,0.679s-0.304,0.679-0.679,0.679
		S3.085,13.873,3.085,13.498"/>
	<path style="fill:#F9C5AF;" d="M7.36,13.498c0-0.375,0.304-0.679,0.679-0.679s0.679,0.304,0.679,0.679s-0.304,0.679-0.679,0.679
		S7.36,13.873,7.36,13.498"/>
	<path style="fill:#F9C5AF;" d="M11.636,13.498c0-0.375,0.304-0.679,0.679-0.679s0.679,0.304,0.679,0.679s-0.304,0.679-0.679,0.679
		S11.636,13.873,11.636,13.498"/>
	<path style="fill:#F9C5AF;" d="M15.911,13.498c0-0.375,0.304-0.679,0.679-0.679s0.679,0.304,0.679,0.679s-0.304,0.679-0.679,0.679
		S15.911,13.873,15.911,13.498"/>
	<path style="fill:#F9C5AF;" d="M5.223,17.146c0-0.375,0.304-0.679,0.679-0.679s0.679,0.304,0.679,0.679s-0.304,0.679-0.679,0.679
		S5.223,17.521,5.223,17.146"/>
	<path style="fill:#F9C5AF;" d="M9.498,17.146c0-0.375,0.304-0.679,0.679-0.679s0.679,0.304,0.679,0.679s-0.304,0.679-0.679,0.679
		S9.498,17.521,9.498,17.146"/>
	<path style="fill:#F9C5AF;" d="M13.773,17.146c0-0.375,0.304-0.679,0.679-0.679s0.679,0.304,0.679,0.679s-0.304,0.679-0.679,0.679
		S13.773,17.521,13.773,17.146"/>
	<path style="fill:#F9C5AF;" d="M7.36,20.794c0-0.375,0.304-0.679,0.679-0.679c0.375,0,0.679,0.304,0.679,0.679
		s-0.304,0.679-0.679,0.679C7.664,21.473,7.36,21.169,7.36,20.794"/>
	<path style="fill:#F9C5AF;" d="M11.636,20.794c0-0.375,0.304-0.679,0.679-0.679s0.679,0.304,0.679,0.679s-0.304,0.679-0.679,0.679
		S11.636,21.169,11.636,20.794"/>
	<path style="fill:#F9C5AF;" d="M9.498,24.443c0-0.375,0.304-0.679,0.679-0.679s0.679,0.304,0.679,0.679
		c0,0.375-0.304,0.679-0.679,0.679S9.498,24.818,9.498,24.443"/>
</g>
</svg>
