<?xml version="1.0" encoding="utf-8"?>
<!-- Generator: Adobe Illustrator 18.1.1, SVG Export Plug-In . SVG Version: 6.00 Build 0)  -->
<!DOCTYPE svg PUBLIC "-//W3C//DTD SVG 1.1//EN" "http://www.w3.org/Graphics/SVG/1.1/DTD/svg11.dtd">
<svg version="1.1" id="Ebene_1" xmlns="http://www.w3.org/2000/svg" xmlns:xlink="http://www.w3.org/1999/xlink" x="0px" y="0px"
	 viewBox="0 0 57.4 57.4" enable-background="new 0 0 57.4 57.4" xml:space="preserve">
<path fill="#FFFFFF" d="M28.8,54C42.7,54,54,42.6,54,28.7S42.7,3.4,28.8,3.4S3.5,14.7,3.5,28.7S14.8,54,28.8,54"/>
<path fill="#3C3C3B" d="M49.9,28.8c0-11.6-9.4-21.1-21.1-21.1c-11.6,0-21.1,9.4-21.1,21.1s9.4,21.1,21.1,21.1
	C40.4,49.9,49.9,40.4,49.9,28.8"/>
<g>
	<path fill="#FFFFFF" d="M45.2,21.2c0,0-1.2,0.2-1.8,0.5c-2.2,0.9-4.4,3.2-5,5.8c-1-2.9-4.9-6.9-9.6-6.9c-4.6,0-8.5,3.9-9.6,6.8
		c-0.9-2.8-3.9-4.9-6.7-5.6c1.2,4.1-2.2,5,0,14.7c0,0,1.2-0.2,1.8-0.5c2.1-0.9,4.3-3.1,4.9-5.5c1.1,3,4.9,6.6,9.5,6.6
		c4.8,0,8.7-3.9,9.7-6.9c0.8,2.8,3.9,5,6.7,5.7C43.9,31.7,47.3,30.9,45.2,21.2z"/>
	<path fill="#3C3C3B" d="M14.9,25.5c1.1,0,2.3,0.8,3,1.6c0.2,0.3,0.5,0.6,0.6,0.9c0.1,0.2,0.2,0.4,0.3,0.8c-0.4-0.5-1.1-1.3-1.4-1.5
		c-0.6-0.5-1.2-0.9-1.9-1.3C15.4,25.9,15,25.7,14.9,25.5"/>
	<path fill="#3C3C3B" d="M16.6,31.2c0-0.2,0.3-0.5,0.5-0.7c0.6-0.6,1.2-1.2,1.8-1.7c0,0,0,0,0,0c0,0,0,0,0,0c-0.3,0.5-0.6,1-1,1.4
		C17.6,30.6,17.1,31.1,16.6,31.2C16.6,31.2,16.6,31.2,16.6,31.2"/>
	<path fill="#3C3C3B" d="M42.6,25.5c-1.1,0-2.3,0.8-3,1.6c-0.2,0.3-0.5,0.6-0.6,0.9c-0.1,0.2-0.2,0.4-0.3,0.8
		c0.4-0.5,1.1-1.3,1.4-1.5c0.6-0.5,1.2-0.9,1.9-1.3C42.1,25.9,42.5,25.7,42.6,25.5"/>
	<path fill="#3C3C3B" d="M40.9,31.2c0-0.2-0.3-0.5-0.5-0.7c-0.6-0.6-1.2-1.2-1.8-1.7c0,0,0,0,0,0c0,0,0,0,0,0c0.3,0.5,0.6,1,1,1.4
		C39.9,30.6,40.4,31.1,40.9,31.2C40.9,31.2,40.9,31.2,40.9,31.2"/>
</g>
<path fill="#F20D54" d="M28.7,0C12.9,0,0,12.9,0,28.7c0,15.8,12.9,28.7,28.7,28.7c15.8,0,28.7-12.9,28.7-28.7
	C57.4,12.9,44.5,0,28.7,0z M4,28.7C4,15.1,15.1,4,28.7,4c6.1,0,11.7,2.2,16,5.9L9.9,44.7C6.2,40.4,4,34.8,4,28.7z M28.7,53.4
	c-6.1,0-11.7-2.2-16-5.9l34.8-34.8c3.7,4.3,5.9,9.9,5.9,16C53.4,42.3,42.3,53.4,28.7,53.4z"/>
<g>
</g>
<g>
</g>
<g>
</g>
<g>
</g>
<g>
</g>
<g>
</g>
</svg>
