<?xml version="1.0" encoding="utf-8"?>
<!-- Generator: Adobe Illustrator 18.1.1, SVG Export Plug-In . SVG Version: 6.00 Build 0)  -->
<!DOCTYPE svg PUBLIC "-//W3C//DTD SVG 1.1//EN" "http://www.w3.org/Graphics/SVG/1.1/DTD/svg11.dtd">
<svg version="1.1" id="Ebene_1" xmlns="http://www.w3.org/2000/svg" xmlns:xlink="http://www.w3.org/1999/xlink" x="0px" y="0px"
	 viewBox="0 0 47.3 47.3" enable-background="new 0 0 47.3 47.3" xml:space="preserve">
<path fill="#3C3C3B" d="M23.7,0C10.6,0,0,10.6,0,23.7s10.6,23.7,23.7,23.7s23.7-10.6,23.7-23.7S36.7,0,23.7,0z M23.5,38.8L23.5,38.8
	C23.5,38.8,23.5,38.8,23.5,38.8C13,34.4,8.1,22.2,12.4,11.5C22.9,15.9,27.8,28.1,23.5,38.8L23.5,38.8c6-6.2,7.4-15.2,4.4-22.7
	c1.9-1.9,4.1-3.5,6.7-4.6C38.9,22.2,34,34.4,23.5,38.8z"/>
<g>
</g>
<g>
</g>
<g>
</g>
<g>
</g>
<g>
</g>
<g>
</g>
</svg>
